<svg viewBox="0 0 196 104" fill="none" xmlns="http://www.w3.org/2000/svg">
  <path d="M55.8324 2.36045C54.3307 0.849576 52.2885 0 50.1583 0H19.2306C12.1151 0 8.54051 8.59282 13.5565 13.6396L46.0782 46.3604C49.1794 49.4806 49.1794 54.5194 46.0782 57.6395L13.5565 90.3604C8.5405 95.4072 12.1151 104 19.2306 104H50.1583C52.2885 104 54.3307 103.15 55.8324 101.64L99.5644 57.6395C102.666 54.5193 102.666 49.4806 99.5644 46.3604L55.8324 2.36045Z" fill="#9333EA" />
  <path d="M136.663 2.36045C135.161 0.849581 133.119 0 130.989 0H100.061C92.9455 0 89.3709 8.59282 94.3869 13.6396L126.909 46.3604C130.01 49.4806 130.01 54.5193 126.909 57.6395L94.3869 90.3604C89.3709 95.4072 92.9455 104 100.061 104H130.989C133.119 104 135.161 103.15 136.663 101.64L180.395 57.6396C183.496 54.5194 183.496 49.4806 180.395 46.3604L136.663 2.36045Z" fill="#9333EA" />
  <path d="M65.8324 2.36045C64.3307 0.849576 62.2885 0 60.1583 0H29.2306C22.1151 0 18.5405 8.59282 23.5565 13.6396L56.0782 46.3604C59.1794 49.4806 59.1794 54.5194 56.0782 57.6395L23.5565 90.3604C18.5405 95.4072 22.1151 104 29.2306 104H60.1583C62.2885 104 64.3307 103.15 65.8324 101.64L109.564 57.6395C112.666 54.5193 112.666 49.4806 109.564 46.3604L65.8324 2.36045Z" fill="#B15FFE" />
  <path d="M146.663 2.36045C145.161 0.849581 143.119 0 140.989 0H110.061C102.946 0 99.3709 8.59282 104.387 13.6396L136.909 46.3604C140.01 49.4806 140.01 54.5193 136.909 57.6395L104.387 90.3604C99.3709 95.4072 102.946 104 110.061 104H140.989C143.119 104 145.161 103.15 146.663 101.64L190.395 57.6396C193.496 54.5194 193.496 49.4806 190.395 46.3604L146.663 2.36045Z" fill="#B15FFE" />
</svg>
  