<svg viewBox="0 0 32 32" fill="none" xmlns="http://www.w3.org/2000/svg">
  <path d="M8.06668 8.48454C7.75201 8.1744 7.32406 8 6.87768 8H2.67976C1.18871 8 0.439647 9.76388 1.49075 10.7998L6.09965 15.3423C6.74951 15.9828 6.74951 17.0172 6.09965 17.6577L1.49075 22.2002C0.439648 23.2361 1.18871 25 2.67975 25H6.87767C7.32406 25 7.75201 24.8256 8.06668 24.5155L15.0247 17.6576C15.6746 17.0172 15.6746 15.9828 15.0247 15.3423L8.06668 8.48454Z" fill="#9333EA" />
  <path d="M21.5546 8.48454C21.2399 8.1744 20.812 8 20.3656 8H16.1677C14.6766 8 13.9275 9.76388 14.9786 10.7998L19.5875 15.3423C20.2374 15.9828 20.2374 17.0172 19.5875 17.6576L14.9786 22.2002C13.9275 23.2361 14.6766 25 16.1676 25H20.3656C20.812 25 21.2399 24.8256 21.5546 24.5155L28.5126 17.6576C29.1625 17.0172 29.1625 15.9828 28.5126 15.3423L21.5546 8.48454Z" fill="#9333EA" />
  <path d="M10.0667 8.48454C9.75201 8.1744 9.32406 8 8.87768 8H4.67976C3.18871 8 2.43965 9.76388 3.49075 10.7998L8.09965 15.3423C8.74951 15.9828 8.74951 17.0172 8.09965 17.6577L3.49075 22.2002C2.43965 23.2361 3.18871 25 4.67975 25H8.87767C9.32406 25 9.75201 24.8256 10.0667 24.5155L17.0247 17.6576C17.6746 17.0172 17.6746 15.9828 17.0247 15.3423L10.0667 8.48454Z" fill="#B15FFE" />
  <path d="M23.5546 8.48454C23.2399 8.1744 22.812 8 22.3656 8H18.1677C16.6766 8 15.9275 9.76388 16.9786 10.7998L21.5875 15.3423C22.2374 15.9828 22.2374 17.0172 21.5875 17.6576L16.9786 22.2002C15.9275 23.2361 16.6766 25 18.1676 25H22.3656C22.812 25 23.2399 24.8256 23.5546 24.5155L30.5126 17.6576C31.1625 17.0172 31.1625 15.9828 30.5126 15.3423L23.5546 8.48454Z" fill="#B15FFE" />
</svg>
  